{"title":"Pain &amp; Gain 2013 BRRiP XViD SAF","uid":8802839,"size":2013229716,"categoryP":"video","categoryS":"movies","magnet":"?xt=urn:btih:a3473e2ff5f5b6efe7dd9a9a04596ef315a19f8a&amp;dn=Pain+%26amp%3B+Gain+2013+BRRiP+XViD+SAF&amp;tr=udp%3A%2F%2Ftracker.openbittorrent.com%3A80&amp;tr=udp%3A%2F%2Fopen.demonii.com%3A1337&amp;tr=udp%3A%2F%2Ftracker.coppersurfer.tk%3A6969&amp;tr=udp%3A%2F%2Fexodus.desync.com%3A6969","seeders":1,"leechers":1,"uploader":"xxxlavalxxx","files":-1,"time":1376251421,"description":" &lt;a href=&quot;http://www.imdb.com/title/tt1980209/&quot; rel=&quot;nofollow&quot; target=&quot;_NEW&quot;&gt;http://www.imdb.com/title/tt1980209/&lt;/a&gt;\n\n\nA trio of bodybuilders in Florida get caught up in an extortion ring and a kidnapping scheme that goes terribly wrong. \n\n\n\nDirector:\n Michael Bay \n\nWriters:\n Christopher Markus (screenplay), Stephen McFeely (screenplay)\n\nStars:\n Mark Wahlberg, Dwayne Johnson, Anthony Mackie \n\nGenres:\n  Action |  Comedy |  Crime |  Drama |  Thriller \n\nCountry:\n USA \n\nLanguage:\n English \n\n\nFormat                                   : AVI\n Format/Info                              : Audio Video Interleave\n File size                                : 1.82 GiB\n Duration                                 : 2h 9mn\n Overall bit rate                         : 2 008 Kbps\n Writing application                      : VirtualDubMod 1.5.10.2 (build 2540/release)\n Writing library                          : VirtualDubMod build 2540/release\n\n Video\n ID                                       : 0\n Format                                   : MPEG-4 Visual\n Format profile                           : Advanced Simple@L5\n Format settings, BVOP                    : 2\n Format settings, QPel                    : No\n Format settings, GMC                     : No warppoints\n Format settings, Matrix                  : Default (H.263)\n Muxing mode                              : Packed bitstream\n Codec ID                                 : XVID\n Codec ID/Hint                            : XviD\n Duration                                 : 2h 9mn\n Bit rate                                 : 1 614 Kbps\n Width                                    : 720 pixels\n Height                                   : 304 pixels\n Display aspect ratio                     : 2.35:1\n Frame rate                               : 23.976 fps\n Color space                              : YUV\n Chroma subsampling                       : 4:2:0\n Bit depth                                : 8 bits\n Scan type                                : Progressive\n Compression mode                         : Lossy\n Bits/(Pixel*Frame)                       : 0.308\n Stream size                              : 1.46 GiB (80%)\n Writing library                          : XviD 64\n\n Audio\n ID                                       : 1\n Format                                   : AC-3\n Format/Info                              : Audio Coding 3\n Mode extension                           : CM (complete main)\n Format settings, Endianness              : Big\n Codec ID                                 : 2000\n Duration                                 : 2h 9mn\n Bit rate mode                            : Constant\n Bit rate                                 : 384 Kbps\n Channel(s)                               : 6 channels\n Channel positions                        : Front: L C R, Side: L R, LFE\n Sampling rate                            : 48.0 KHz\n Bit depth                                : 16 bits\n Compression mode                         : Lossy\n Stream size                              : 356 MiB (19%)\n Alignment                                : Split accross interleaves\n Interleave, duration                     : 42 ms (1.00 video frame)\n Interleave, preload duration             : 500 ms\n\n\n\n Source Used           Pain and Gain 2013 720p BluRay X264-AMIABLE            - Thanks\n\n\n\n &lt;a href=&quot;\nhttp://bayimg.com/aAohHaAeE&quot; rel=&quot;nofollow&quot; target=&quot;_NEW&quot;&gt;\nhttp://bayimg.com/aAohHaAeE&lt;/a&gt; &lt;a href=&quot;\nhttp://bayimg.com/AAOHiaAEE&quot; rel=&quot;nofollow&quot; target=&quot;_NEW&quot;&gt;\nhttp://bayimg.com/AAOHiaAEE&lt;/a&gt;\n","torrent":{"xt":"urn:btih:a3473e2ff5f5b6efe7dd9a9a04596ef315a19f8a","amp;dn":"Pain+%26amp%3B+Gain+2013+BRRiP+XViD+SAF","amp;tr":["udp%3A%2F%2Ftracker.openbittorrent.com%3A80","udp%3A%2F%2Fopen.demonii.com%3A1337","udp%3A%2F%2Ftracker.coppersurfer.tk%3A6969","udp%3A%2F%2Fexodus.desync.com%3A6969"],"infoHash":"a3473e2ff5f5b6efe7dd9a9a04596ef315a19f8a","infoHashBuffer":{"type":"Buffer","data":[163,71,62,47,245,245,182,239,231,221,154,154,4,89,110,243,21,161,159,138]},"announce":[],"urlList":[]}}